Coordinates
nRows=4
nColumns=38

# SIMM Motion File Header:
name Coordinates
datacolumns 38
datarows 4
otherdata 1
range 1.42340000000000000000 1.42640000000000010000

Units are S.I. units (second, meters, Newtons, ...)
Angles are in degrees.

endheader
time	pelvis_tilt	pelvis_list	pelvis_rotation	pelvis_tx	pelvis_ty	pelvis_tz	hip_flexion_r	hip_adduction_r	hip_rotation_r	knee_angle_r	ankle_angle_r	subtalar_angle_r	mtp_angle_r	hip_flexion_l	hip_adduction_l	hip_rotation_l	knee_angle_l	ankle_angle_l	subtalar_angle_l	mtp_angle_l	lumbar_extension	lumbar_bending	lumbar_rotation	arm_flex_r	arm_add_r	arm_rot_r	elbow_flex_r	pro_sup_r	wrist_flex_r	wrist_dev_r	arm_flex_l	arm_add_l	arm_rot_l	elbow_flex_l	pro_sup_l	wrist_flex_l	wrist_dev_l
      1.42340000000000000000	     -4.09579323741157620000	     -0.43048930364182741000	     -5.50079376373234560000	      0.87638945584346029000	      0.95844307650787175000	     -0.26502587589907139000	      4.15819933830494910000	      8.76345879698609310000	     11.14172497332981300000	    -31.56584032031215900000	     19.70894775150571100000	      0.00000000000000466727	     -0.00000000000005621166	     37.07918181762774900000	     -2.62938876482927240000	     -3.14616107874235950000	    -92.23821808398396600000	      4.79295659321151390000	      0.00000000000000279090	      0.00000000000001291194	    -10.64108001500813400000	      1.99766290957548720000	     10.14605892405243100000	    -17.73858681074767700000	    -22.56713176851322400000	      0.93163552957978868000	     91.92584610355344000000	    100.47814326003770000000	      0.00000000000000087723	     -0.00000000000000390043	    -35.92162002214124100000	    -19.19109601907948500000	      3.80616794378720910000	    107.33038642903445000000	    112.71568405494614000000	      0.00000000000000065270	      0.00000000000001599667
      1.42440000000000010000	     -4.14376592509546530000	     -0.33292906722882870000	     -5.41139755249647170000	      0.87670378529891568000	      0.95908404234328515000	     -0.26506141260556576000	      3.82770064783147570000	      8.60931802923130360000	     11.13729384405976200000	    -31.19190179973727000000	     19.44329740760224500000	      0.00000000000000484392	     -0.00000000000005680992	     37.22806758198992600000	     -2.46966722284015770000	     -3.11019818379667970000	    -91.81733330457956300000	      4.88617346369588820000	      0.00000000000000286806	      0.00000000000001293107	    -10.52664955227767900000	      1.89035134405767270000	     10.15122973242928800000	    -17.73503994789893700000	    -22.56009890699812800000	      0.95375575562445924000	     92.18756477579980000000	    100.45979038762847000000	      0.00000000000000087396	     -0.00000000000000401845	    -36.11643812924180000000	    -19.26145919058498600000	      3.78503733012281130000	    107.45728304005064000000	    112.74541007778960000000	      0.00000000000000065898	      0.00000000000001599066
      1.42540000000000000000	     -4.19258220464585470000	     -0.23426952143784113000	     -5.31944902704253850000	      0.87702563166838921000	      0.95972873274243997000	     -0.26510444537034095000	      3.49868014508739260000	      8.45318481085240950000	     11.12648313239478000000	    -30.81769768433610300000	     19.16743463740235900000	      0.00000000000000501371	     -0.00000000000005736380	     37.37382638096531200000	     -2.30595075087233910000	     -3.07267809989217210000	    -91.39079655685581800000	      4.97812912553838590000	      0.00000000000000295166	      0.00000000000001293964	    -10.41018877211198800000	      1.78261758742665540000	     10.15258812588006700000	    -17.73362442731987400000	    -22.55369311797635800000	      0.97710345366070539000	     92.44906912974235500000	    100.44438671835611000000	      0.00000000000000089332	     -0.00000000000000413141	    -36.31251663017587100000	    -19.33065953891589600000	      3.76242247742040540000	    107.58304611151954000000	    112.77784791381831000000	      0.00000000000000066591	      0.00000000000001598485
      1.42640000000000010000	     -4.24212679436035870000	     -0.13456792653336128000	     -5.22508907102803820000	      0.87735461880065668000	      0.96037717757355767000	     -0.26515483207468143000	      3.17113120278161010000	      8.29517524970017030000	     11.10935486267122800000	    -30.44339780353007900000	     18.88128973638263400000	      0.00000000000000517336	     -0.00000000000005793554	     37.51634885262591000000	     -2.13835923842515370000	     -3.03362077277046180000	    -90.95863226269739200000	      5.06874627060172230000	      0.00000000000000303977	      0.00000000000001293997	    -10.29193114582989400000	      1.67447263563375870000	     10.15030625827945300000	    -17.73425938839228900000	    -22.54793413764463800000	      1.00163931006379260000	     92.71036531259835600000	    100.43177392620005000000	      0.00000000000000092614	     -0.00000000000000425988	    -36.50973762370772800000	    -19.39866475298240200000	      3.73836715644485110000	    107.70766508143397000000	    112.81288796833795000000	      0.00000000000000067322	      0.00000000000001597849
